<svg xmlns="http://www.w3.org/2000/svg" xmlns:xlink="http://www.w3.org/1999/xlink" width="1980" zoomAndPan="magnify" viewBox="0 0 1485 1484.999939" height="1980" preserveAspectRatio="xMidYMid meet" version="1.0"><defs><g/></defs><path stroke-linecap="butt" transform="matrix(0.75, 0, 0, 0.75, 0.0000305, 227.999961)" fill="none" stroke-linejoin="miter" d="M 135.427054 590.000101 C 131.739554 590.000101 128.71872 588.770934 126.37497 586.3126 C 124.140595 583.739683 123.020803 580.166766 123.020803 575.583433 C 123.020803 572.343849 123.74997 568.651141 125.203095 564.520932 L 291.333317 96.296935 C 293.567692 90.369851 296.083317 86.291726 298.874984 84.05735 C 301.671859 81.708392 306.031235 80.536517 311.95311 80.536517 L 447.23958 80.536517 C 452.718747 80.536517 457.635414 82.270892 461.994789 85.734434 C 466.348956 89.088601 469.645832 93.50006 471.885415 98.979227 L 636.677095 566.698015 C 637.56772 570.385516 638.015637 573.125099 638.015637 574.911558 C 638.015637 579.046975 637.119804 582.6251 635.333345 585.640725 C 633.546887 588.546976 630.807303 590.000101 627.119803 590.000101 L 492.505208 590.000101 C 484.682291 590.000101 479.651041 586.088642 477.416666 578.265725 L 450.593747 499.307385 C 449.249997 496.177176 447.968746 494.052176 446.73958 492.937593 C 445.619788 491.708426 443.494788 491.093842 440.364579 491.093842 L 294.687484 491.093842 C 289.208317 491.093842 285.802066 493.604259 284.458316 498.63551 L 256.296856 579.776141 C 253.49998 586.59385 248.026022 590.000101 239.869771 590.000101 Z M 405.999993 374.411541 C 411.031243 374.411541 413.54166 372.119874 413.54166 367.541749 C 413.54166 366.645915 413.098952 364.354249 412.203118 360.666748 L 370.963532 243.31778 C 370.067698 240.968822 368.671865 239.796947 366.770823 239.796947 C 364.984365 239.796947 363.640614 240.968822 362.749989 243.31778 L 320.838528 359.994873 C 319.942694 361.781332 319.494777 364.072999 319.494777 366.869874 C 319.494777 371.895916 322.234361 374.411541 327.713528 374.411541 Z M 708.041685 590.000101 C 702.562517 590.000101 698.203142 588.323017 694.963559 584.96885 C 691.83335 581.505308 690.27085 576.755308 690.27085 570.718849 L 690.27085 96.296935 C 690.27085 90.817768 691.385433 86.854226 693.625017 84.390684 C 695.968767 81.822975 699.656267 80.536517 704.687518 80.536517 L 896.973992 80.536517 C 902.895867 80.536517 907.088576 81.317767 909.54691 82.885475 C 912.114618 84.447975 914.348993 87.802142 916.250035 92.942768 L 987.666708 311.213619 C 989.00525 314.90112 990.572958 316.74487 992.359416 316.74487 C 993.812542 316.74487 995.208375 314.90112 996.552125 311.213619 L 1060.421922 100.484435 C 1064.000047 87.187559 1070.145881 80.536517 1078.864632 80.536517 L 1277.349023 80.536517 C 1285.619857 80.536517 1289.755274 85.343809 1289.755274 94.953185 L 1289.755274 570.052182 C 1289.755274 577.427183 1288.026108 582.6251 1284.557357 585.640725 C 1281.093815 588.546976 1275.505273 590.000101 1267.796939 590.000101 L 1151.619846 590.000101 C 1144.802137 590.000101 1140.109429 588.656351 1137.536512 585.974059 C 1135.078178 583.182392 1133.849011 578.823016 1133.849011 572.901141 L 1133.849011 264.437574 C 1133.849011 260.864657 1132.953178 259.07299 1131.16672 259.07299 C 1128.817761 259.07299 1126.974011 261.140698 1125.635469 265.276115 L 1026.724003 577.59385 C 1023.484419 585.864684 1018.01046 590.000101 1010.296918 590.000101 L 938.213579 590.000101 C 929.942745 590.000101 924.411494 585.864684 921.614619 577.59385 L 822.875027 270.640699 C 821.421902 266.062574 819.802111 263.770907 818.010444 263.770907 C 815.666693 263.770907 814.494818 266.286532 814.494818 271.312574 L 814.494818 574.911558 C 814.494818 580.833433 813.598985 584.859475 811.812527 586.984475 C 810.02086 588.994892 805.885443 590.000101 799.406275 590.000101 Z M 1354.932363 590.000101 C 1351.244863 590.000101 1348.229238 588.770934 1345.880279 586.3126 C 1343.645904 583.739683 1342.526112 580.166766 1342.526112 575.583433 C 1342.526112 572.343849 1343.255279 568.651141 1344.708404 564.520932 L 1510.838626 96.296935 C 1513.073001 90.369851 1515.588626 86.291726 1518.385502 84.05735 C 1521.177169 81.708392 1525.536544 80.536517 1531.458419 80.536517 L 1666.744889 80.536517 C 1672.224056 80.536517 1677.140723 82.270892 1681.500098 85.734434 C 1685.859474 89.088601 1689.156349 93.50006 1691.390724 98.979227 L 1856.182405 566.698015 C 1857.07303 570.385516 1857.520946 573.125099 1857.520946 574.911558 C 1857.520946 579.046975 1856.630321 582.6251 1854.838654 585.640725 C 1853.052196 588.546976 1850.312612 590.000101 1846.625112 590.000101 L 1712.010518 590.000101 C 1704.1876 590.000101 1699.15635 586.088642 1696.921975 578.265725 L 1670.099056 499.307385 C 1668.760514 496.177176 1667.474056 494.052176 1666.244889 492.937593 C 1665.125097 491.708426 1663.000097 491.093842 1659.875097 491.093842 L 1514.192793 491.093842 C 1508.713626 491.093842 1505.307376 493.604259 1503.968834 498.63551 L 1475.802165 579.776141 C 1473.010498 586.59385 1467.531331 590.000101 1459.37508 590.000101 Z M 1625.505302 374.411541 C 1630.536553 374.411541 1633.052178 372.119874 1633.052178 367.541749 C 1633.052178 366.645915 1632.604261 364.354249 1631.708428 360.666748 L 1590.468841 243.31778 C 1589.573008 240.968822 1588.177174 239.796947 1586.276132 239.796947 C 1584.489674 239.796947 1583.151132 240.968822 1582.255299 243.31778 L 1540.343837 359.994873 C 1539.448003 361.781332 1539.005295 364.072999 1539.005295 366.869874 C 1539.005295 371.895916 1541.73967 374.411541 1547.218837 374.411541 Z M 1625.505302 374.411541 " stroke="#ffffff" stroke-width="94.416023" stroke-opacity="1" stroke-miterlimit="4"/><path stroke-linecap="butt" transform="matrix(0.75, 0, 0, 0.75, 0.0000305, 227.999961)" fill="none" stroke-linejoin="miter" d="M 540.307296 766.536574 C 547.125005 766.536574 550.536463 770.390741 550.536463 778.104283 L 550.536463 1263.593906 C 550.536463 1267.281407 549.026046 1270.30224 546.010421 1272.64599 C 543.104171 1274.880366 539.359379 1276.000157 534.776045 1276.000157 L 440.729162 1276.000157 C 436.593745 1276.000157 433.239579 1275.328282 430.67187 1273.989741 C 428.213536 1272.536615 425.35937 1269.797032 422.119786 1265.776198 L 233.354145 1009.619927 C 231.458312 1007.270968 229.83852 1006.323052 228.49477 1006.76576 C 227.156228 1007.213677 226.484353 1008.60951 226.484353 1010.958469 L 226.484353 1260.911614 C 226.93227 1266.390782 225.86977 1270.30224 223.296853 1272.64599 C 220.838519 1274.880366 216.369769 1276.000157 209.885393 1276.000157 L 116.510386 1276.000157 C 105.109343 1276.000157 99.411426 1271.416824 99.411426 1262.255365 L 99.411426 782.296992 C 99.411426 771.791782 104.437468 766.536574 114.499969 766.536574 L 226.484353 766.536574 C 232.406229 766.536574 236.822896 767.317824 239.729146 768.885532 C 242.744771 770.448032 246.098938 773.802199 249.786438 778.942825 L 414.578119 1008.276177 C 417.369786 1012.302219 419.885411 1014.312636 422.119786 1014.312636 C 424.468744 1014.312636 425.64062 1011.349094 425.64062 1005.427218 L 425.64062 780.953241 C 425.64062 771.343866 430.67187 766.536574 440.729162 766.536574 Z M 615.755219 1276.000157 C 612.067718 1276.000157 609.052093 1274.770991 606.703135 1272.312657 C 604.468759 1269.73974 603.348968 1266.166823 603.348968 1261.58349 C 603.348968 1258.343906 604.078134 1254.651197 605.531259 1250.520989 L 771.661482 782.296992 C 773.895857 776.369908 776.411482 772.291782 779.208357 770.057407 C 782.000024 767.708449 786.359399 766.536574 792.281275 766.536574 L 927.567744 766.536574 C 933.046912 766.536574 937.963579 768.270949 942.322954 771.734491 C 946.682329 775.088658 949.979205 779.500116 952.21358 784.979283 L 1117.00526 1252.698072 C 1117.895885 1256.385572 1118.343802 1259.125156 1118.343802 1260.911614 C 1118.343802 1265.047031 1117.453177 1268.625157 1115.66151 1271.640782 C 1113.875051 1274.547032 1111.135468 1276.000157 1107.447968 1276.000157 L 972.833373 1276.000157 C 965.010456 1276.000157 959.979205 1272.088699 957.74483 1264.265781 L 930.921911 1185.307442 C 929.578161 1182.177233 928.296911 1180.052233 927.067744 1178.937649 C 925.947953 1177.708483 923.822952 1177.093899 920.697952 1177.093899 L 775.015648 1177.093899 C 769.536481 1177.093899 766.130231 1179.604316 764.786481 1184.635567 L 736.62502 1265.776198 C 733.833353 1272.593907 728.354186 1276.000157 720.197936 1276.000157 Z M 886.328158 1060.411598 C 891.359408 1060.411598 893.875033 1058.119931 893.875033 1053.541806 C 893.875033 1052.645972 893.427117 1050.354305 892.531283 1046.666805 L 851.291696 929.317837 C 850.395863 926.968879 849.00003 925.797003 847.098988 925.797003 C 845.312529 925.797003 843.973988 926.968879 843.078154 929.317837 L 801.166692 1045.99493 C 800.270859 1047.781389 799.828151 1050.073055 799.828151 1052.869931 C 799.828151 1057.895973 802.562526 1060.411598 808.041693 1060.411598 Z M 1423.234452 1130.48452 C 1423.234452 1185.359525 1409.822993 1224.47932 1383.000074 1247.838697 C 1356.291738 1271.192865 1315.218818 1282.875158 1259.781314 1282.875158 C 1233.744853 1282.875158 1205.411517 1280.135574 1174.791723 1274.656407 C 1166.520889 1273.317866 1160.76568 1270.468907 1157.520888 1266.109532 C 1154.281305 1261.750156 1152.942763 1254.765781 1153.500055 1245.156405 L 1159.536514 1166.864732 C 1160.541722 1156.359523 1165.119847 1151.109522 1173.281306 1151.109522 C 1178.869849 1151.109522 1184.401099 1151.776189 1189.875058 1153.119939 C 1199.937559 1154.906397 1207.927143 1155.802231 1213.849018 1155.802231 C 1231.28652 1155.802231 1244.583396 1150.77098 1253.750063 1140.713688 C 1262.911522 1130.656395 1267.494856 1114.395977 1267.494856 1091.927226 L 1267.494856 782.296992 C 1267.494856 777.265741 1268.724023 773.411574 1271.182356 770.729282 C 1273.755273 767.932407 1277.052148 766.536574 1281.072982 766.536574 L 1410.994868 766.536574 C 1419.156327 766.536574 1423.234452 771.343866 1423.234452 780.953241 Z M 1491.265708 782.296992 C 1491.265708 771.791782 1495.625083 766.536574 1504.343834 766.536574 L 1875.166781 766.536574 C 1883.32824 766.536574 1887.406366 771.343866 1887.406366 780.953241 L 1886.73449 860.583456 C 1886.73449 872.989707 1880.812615 879.192833 1868.963656 879.192833 L 1662.932389 879.192833 C 1652.427179 879.192833 1647.177179 883.494917 1647.177179 892.099084 L 1647.177179 950.43763 C 1647.177179 955.020964 1648.291762 958.599089 1650.526138 961.166798 C 1652.875096 963.739715 1655.890721 965.026173 1659.578222 965.026173 L 1783.130315 965.026173 C 1792.744899 965.026173 1797.546983 969.552215 1797.546983 978.604299 L 1797.546983 1063.765765 C 1797.546983 1071.588682 1793.416774 1075.500141 1785.14594 1075.500141 L 1658.073013 1075.500141 C 1654.942805 1075.500141 1652.317804 1076.448058 1650.192804 1078.349099 C 1648.182387 1080.140766 1647.177179 1082.375141 1647.177179 1085.057433 L 1647.177179 1153.791814 C 1647.177179 1157.479314 1647.734471 1159.989731 1648.849054 1161.333481 C 1649.968846 1162.672023 1652.145929 1163.343898 1655.390721 1163.343898 L 1878.520948 1163.343898 C 1888.578241 1163.343898 1893.609491 1167.703273 1893.609491 1176.422024 L 1893.609491 1260.911614 C 1893.609491 1265.494948 1892.213658 1269.182449 1889.416782 1271.974115 C 1886.73449 1274.656407 1882.656365 1276.000157 1877.177198 1276.000157 L 1509.875084 1276.000157 C 1502.948 1276.000157 1498.083417 1274.656407 1495.29175 1271.974115 C 1492.609458 1269.182449 1491.265708 1264.823073 1491.265708 1258.901198 Z M 1787.994899 678.692816 C 1788.885524 680.479275 1789.333441 682.9949 1789.333441 686.234484 C 1789.333441 693.052193 1784.531357 697.859485 1774.916773 700.65636 L 1614.989676 739.04178 C 1610.406343 739.937613 1607.890717 740.38553 1607.442801 740.38553 C 1601.854259 740.38553 1597.718842 736.974071 1595.03655 730.161571 L 1584.645924 700.65636 C 1583.75009 696.963651 1583.302174 694.677193 1583.302174 693.781359 C 1583.302174 689.645942 1585.593841 686.458442 1590.177174 684.224067 L 1753.625104 614.823019 C 1754.520938 614.375103 1755.916771 614.151144 1757.817813 614.151144 C 1762.401147 614.151144 1765.807397 617.114686 1768.046981 623.036562 Z M 1787.994899 678.692816 " stroke="#ffffff" stroke-width="94.416023" stroke-opacity="1" stroke-miterlimit="4"/><g fill="#284076" fill-opacity="1"><g transform="translate(79.44143, 670.499925)"><g><path d="M 22.140625 0 C 19.398438 0 17.171875 -0.941406 15.453125 -2.828125 C 13.734375 -4.722656 12.875 -7.382812 12.875 -10.8125 C 12.875 -13.21875 13.390625 -15.96875 14.421875 -19.0625 L 139.046875 -370.28125 C 140.765625 -374.75 142.65625 -377.835938 144.71875 -379.546875 C 146.78125 -381.265625 150.039062 -382.125 154.5 -382.125 L 255.953125 -382.125 C 260.078125 -382.125 263.769531 -380.835938 267.03125 -378.265625 C 270.289062 -375.691406 272.78125 -372.34375 274.5 -368.21875 L 398.09375 -17.515625 C 398.78125 -14.765625 399.125 -12.703125 399.125 -11.328125 C 399.125 -8.234375 398.4375 -5.570312 397.0625 -3.34375 C 395.6875 -1.113281 393.628906 0 390.890625 0 L 289.9375 0 C 284.101562 0 280.328125 -2.914062 278.609375 -8.75 L 258.53125 -67.984375 C 257.5 -70.378906 256.550781 -72.003906 255.6875 -72.859375 C 254.832031 -73.722656 253.207031 -74.15625 250.8125 -74.15625 L 141.625 -74.15625 C 137.5 -74.15625 134.925781 -72.269531 133.90625 -68.5 L 112.78125 -7.71875 C 110.71875 -2.570312 106.597656 0 100.421875 0 Z M 225.0625 -161.703125 C 228.832031 -161.703125 230.71875 -163.421875 230.71875 -166.859375 C 230.71875 -167.546875 230.375 -169.265625 229.6875 -172.015625 L 198.796875 -260.078125 C 198.109375 -261.796875 197.078125 -262.65625 195.703125 -262.65625 C 194.328125 -262.65625 193.296875 -261.796875 192.609375 -260.078125 L 161.1875 -172.53125 C 160.507812 -171.15625 160.171875 -169.4375 160.171875 -167.375 C 160.171875 -163.59375 162.226562 -161.703125 166.34375 -161.703125 Z M 225.0625 -161.703125 "/></g></g></g><g fill="#284076" fill-opacity="1"><g transform="translate(490.921681, 670.499925)"><g><path d="M 40.171875 0 C 36.046875 0 32.78125 -1.285156 30.375 -3.859375 C 27.976562 -6.429688 26.78125 -9.953125 26.78125 -14.421875 L 26.78125 -370.28125 C 26.78125 -374.40625 27.640625 -377.410156 29.359375 -379.296875 C 31.078125 -381.179688 33.820312 -382.125 37.59375 -382.125 L 181.796875 -382.125 C 186.253906 -382.125 189.425781 -381.523438 191.3125 -380.328125 C 193.207031 -379.128906 194.84375 -376.640625 196.21875 -372.859375 L 249.78125 -209.09375 C 250.800781 -206.34375 252 -204.96875 253.375 -204.96875 C 254.40625 -204.96875 255.4375 -206.34375 256.46875 -209.09375 L 304.359375 -367.1875 C 307.109375 -377.144531 311.742188 -382.125 318.265625 -382.125 L 467.109375 -382.125 C 473.285156 -382.125 476.375 -378.519531 476.375 -371.3125 L 476.375 -14.9375 C 476.375 -9.4375 475.085938 -5.570312 472.515625 -3.34375 C 469.941406 -1.113281 465.734375 0 459.890625 0 L 372.859375 0 C 367.710938 0 364.191406 -1.03125 362.296875 -3.09375 C 360.410156 -5.15625 359.46875 -8.414062 359.46875 -12.875 L 359.46875 -244.109375 C 359.46875 -246.859375 358.78125 -248.234375 357.40625 -248.234375 C 355.6875 -248.234375 354.316406 -246.6875 353.296875 -243.59375 L 279.125 -9.265625 C 276.726562 -3.085938 272.609375 0 266.765625 0 L 212.6875 0 C 206.507812 0 202.390625 -3.085938 200.328125 -9.265625 L 126.171875 -239.46875 C 125.140625 -242.90625 123.9375 -244.625 122.5625 -244.625 C 120.851562 -244.625 120 -242.734375 120 -238.953125 L 120 -11.328125 C 120 -6.867188 119.3125 -3.863281 117.9375 -2.3125 C 116.5625 -0.769531 113.472656 0 108.671875 0 Z M 40.171875 0 "/></g></g></g><g fill="#284076" fill-opacity="1"><g transform="translate(994.070929, 670.499925)"><g><path d="M 22.140625 0 C 19.398438 0 17.171875 -0.941406 15.453125 -2.828125 C 13.734375 -4.722656 12.875 -7.382812 12.875 -10.8125 C 12.875 -13.21875 13.390625 -15.96875 14.421875 -19.0625 L 139.046875 -370.28125 C 140.765625 -374.75 142.65625 -377.835938 144.71875 -379.546875 C 146.78125 -381.265625 150.039062 -382.125 154.5 -382.125 L 255.953125 -382.125 C 260.078125 -382.125 263.769531 -380.835938 267.03125 -378.265625 C 270.289062 -375.691406 272.78125 -372.34375 274.5 -368.21875 L 398.09375 -17.515625 C 398.78125 -14.765625 399.125 -12.703125 399.125 -11.328125 C 399.125 -8.234375 398.4375 -5.570312 397.0625 -3.34375 C 395.6875 -1.113281 393.628906 0 390.890625 0 L 289.9375 0 C 284.101562 0 280.328125 -2.914062 278.609375 -8.75 L 258.53125 -67.984375 C 257.5 -70.378906 256.550781 -72.003906 255.6875 -72.859375 C 254.832031 -73.722656 253.207031 -74.15625 250.8125 -74.15625 L 141.625 -74.15625 C 137.5 -74.15625 134.925781 -72.269531 133.90625 -68.5 L 112.78125 -7.71875 C 110.71875 -2.570312 106.597656 0 100.421875 0 Z M 225.0625 -161.703125 C 228.832031 -161.703125 230.71875 -163.421875 230.71875 -166.859375 C 230.71875 -167.546875 230.375 -169.265625 229.6875 -172.015625 L 198.796875 -260.078125 C 198.109375 -261.796875 197.078125 -262.65625 195.703125 -262.65625 C 194.328125 -262.65625 193.296875 -261.796875 192.609375 -260.078125 L 161.1875 -172.53125 C 160.507812 -171.15625 160.171875 -169.4375 160.171875 -167.375 C 160.171875 -163.59375 162.226562 -161.703125 166.34375 -161.703125 Z M 225.0625 -161.703125 "/></g></g></g><g fill="#284076" fill-opacity="1"><g transform="translate(47.77737, 1184.999882)"><g><path d="M 357.40625 -382.125 C 362.5625 -382.125 365.140625 -379.207031 365.140625 -373.375 L 365.140625 -9.265625 C 365.140625 -6.523438 364.019531 -4.296875 361.78125 -2.578125 C 359.550781 -0.859375 356.722656 0 353.296875 0 L 282.734375 0 C 279.640625 0 277.148438 -0.515625 275.265625 -1.546875 C 273.378906 -2.578125 271.234375 -4.632812 268.828125 -7.71875 L 127.203125 -199.8125 C 125.828125 -201.53125 124.625 -202.21875 123.59375 -201.875 C 122.570312 -201.53125 122.0625 -200.503906 122.0625 -198.796875 L 122.0625 -11.328125 C 122.394531 -7.210938 121.617188 -4.296875 119.734375 -2.578125 C 117.847656 -0.859375 114.5 0 109.6875 0 L 39.65625 0 C 31.070312 0 26.78125 -3.429688 26.78125 -10.296875 L 26.78125 -370.28125 C 26.78125 -378.175781 30.554688 -382.125 38.109375 -382.125 L 122.0625 -382.125 C 126.519531 -382.125 129.863281 -381.523438 132.09375 -380.328125 C 134.320312 -379.128906 136.8125 -376.640625 139.5625 -372.859375 L 263.171875 -200.84375 C 265.222656 -197.757812 267.109375 -196.21875 268.828125 -196.21875 C 270.546875 -196.21875 271.40625 -198.445312 271.40625 -202.90625 L 271.40625 -371.3125 C 271.40625 -378.519531 275.179688 -382.125 282.734375 -382.125 Z M 357.40625 -382.125 "/></g></g></g><g fill="#284076" fill-opacity="1"><g transform="translate(439.687858, 1184.999882)"><g><path d="M 22.140625 0 C 19.398438 0 17.171875 -0.941406 15.453125 -2.828125 C 13.734375 -4.722656 12.875 -7.382812 12.875 -10.8125 C 12.875 -13.21875 13.390625 -15.96875 14.421875 -19.0625 L 139.046875 -370.28125 C 140.765625 -374.75 142.65625 -377.835938 144.71875 -379.546875 C 146.78125 -381.265625 150.039062 -382.125 154.5 -382.125 L 255.953125 -382.125 C 260.078125 -382.125 263.769531 -380.835938 267.03125 -378.265625 C 270.289062 -375.691406 272.78125 -372.34375 274.5 -368.21875 L 398.09375 -17.515625 C 398.78125 -14.765625 399.125 -12.703125 399.125 -11.328125 C 399.125 -8.234375 398.4375 -5.570312 397.0625 -3.34375 C 395.6875 -1.113281 393.628906 0 390.890625 0 L 289.9375 0 C 284.101562 0 280.328125 -2.914062 278.609375 -8.75 L 258.53125 -67.984375 C 257.5 -70.378906 256.550781 -72.003906 255.6875 -72.859375 C 254.832031 -73.722656 253.207031 -74.15625 250.8125 -74.15625 L 141.625 -74.15625 C 137.5 -74.15625 134.925781 -72.269531 133.90625 -68.5 L 112.78125 -7.71875 C 110.71875 -2.570312 106.597656 0 100.421875 0 Z M 225.0625 -161.703125 C 228.832031 -161.703125 230.71875 -163.421875 230.71875 -166.859375 C 230.71875 -167.546875 230.375 -169.265625 229.6875 -172.015625 L 198.796875 -260.078125 C 198.109375 -261.796875 197.078125 -262.65625 195.703125 -262.65625 C 194.328125 -262.65625 193.296875 -261.796875 192.609375 -260.078125 L 161.1875 -172.53125 C 160.507812 -171.15625 160.171875 -169.4375 160.171875 -167.375 C 160.171875 -163.59375 162.226562 -161.703125 166.34375 -161.703125 Z M 225.0625 -161.703125 "/></g></g></g><g fill="#284076" fill-opacity="1"><g transform="translate(851.168109, 1184.999882)"><g><path d="M 216.296875 -109.1875 C 216.296875 -67.976562 206.253906 -38.617188 186.171875 -21.109375 C 166.085938 -3.597656 135.273438 5.15625 93.734375 5.15625 C 74.160156 5.15625 52.875 3.09375 29.875 -1.03125 C 23.6875 -2.0625 19.390625 -4.207031 16.984375 -7.46875 C 14.585938 -10.726562 13.5625 -15.960938 13.90625 -23.171875 L 18.546875 -81.890625 C 19.222656 -89.785156 22.65625 -93.734375 28.84375 -93.734375 C 32.957031 -93.734375 37.078125 -93.21875 41.203125 -92.1875 C 48.753906 -90.8125 54.757812 -90.125 59.21875 -90.125 C 72.269531 -90.125 82.226562 -93.898438 89.09375 -101.453125 C 95.957031 -109.003906 99.390625 -121.191406 99.390625 -138.015625 L 99.390625 -370.28125 C 99.390625 -374.0625 100.332031 -376.976562 102.21875 -379.03125 C 104.113281 -381.09375 106.601562 -382.125 109.6875 -382.125 L 207.03125 -382.125 C 213.207031 -382.125 216.296875 -378.519531 216.296875 -371.3125 Z M 216.296875 -109.1875 "/></g></g></g><g fill="#284076" fill-opacity="1"><g transform="translate(1091.670349, 1184.999882)"><g><path d="M 26.78125 -370.28125 C 26.78125 -378.175781 30.039062 -382.125 36.5625 -382.125 L 314.671875 -382.125 C 320.847656 -382.125 323.9375 -378.519531 323.9375 -371.3125 L 323.421875 -311.578125 C 323.421875 -302.304688 318.957031 -297.671875 310.03125 -297.671875 L 155.53125 -297.671875 C 147.632812 -297.671875 143.6875 -294.410156 143.6875 -287.890625 L 143.6875 -244.109375 C 143.6875 -240.671875 144.539062 -238.007812 146.25 -236.125 C 147.96875 -234.238281 150.203125 -233.296875 152.953125 -233.296875 L 245.65625 -233.296875 C 252.863281 -233.296875 256.46875 -229.863281 256.46875 -223 L 256.46875 -159.140625 C 256.46875 -153.296875 253.378906 -150.375 247.203125 -150.375 L 151.921875 -150.375 C 149.515625 -150.375 147.539062 -149.6875 146 -148.3125 C 144.457031 -146.945312 143.6875 -145.234375 143.6875 -143.171875 L 143.6875 -91.671875 C 143.6875 -88.921875 144.113281 -87.03125 144.96875 -86 C 145.832031 -84.96875 147.460938 -84.453125 149.859375 -84.453125 L 317.234375 -84.453125 C 324.785156 -84.453125 328.5625 -81.191406 328.5625 -74.671875 L 328.5625 -11.328125 C 328.5625 -7.898438 327.53125 -5.15625 325.46875 -3.09375 C 323.414062 -1.03125 320.328125 0 316.203125 0 L 40.6875 0 C 35.53125 0 31.921875 -1.03125 29.859375 -3.09375 C 27.804688 -5.15625 26.78125 -8.414062 26.78125 -12.875 Z M 249.25 -448.0625 C 249.9375 -446.6875 250.28125 -444.796875 250.28125 -442.390625 C 250.28125 -437.242188 246.675781 -433.640625 239.46875 -431.578125 L 119.484375 -402.734375 C 116.046875 -402.046875 114.15625 -401.703125 113.8125 -401.703125 C 109.6875 -401.703125 106.597656 -404.28125 104.546875 -409.4375 L 96.8125 -431.578125 C 96.125 -434.328125 95.78125 -436.046875 95.78125 -436.734375 C 95.78125 -439.816406 97.5 -442.21875 100.9375 -443.9375 L 223.5 -495.953125 C 224.1875 -496.296875 225.21875 -496.46875 226.59375 -496.46875 C 230.03125 -496.46875 232.609375 -494.234375 234.328125 -489.765625 Z M 249.25 -448.0625 "/></g></g></g></svg>